{
  "accessors": [
    {
      "bufferView": 2,
      "componentType": 5126,
      "count": 65533,
      "max": [
        3.7530126571655273,
        -2.4937915802001953,
        8.466936111450195
      ],
      "min": [
        -4.605591773986816,
        -19.565074920654297,
        -7.1248250007629395
      ],
      "type": "VEC3"
    },
    {
      "bufferView": 2,
      "byteOffset": 786396,
      "componentType": 5126,
      "count": 65533,
      "max": [
        0.9998540282249451,
        0.9998877048492432,
        0.9253648519515991
      ],
      "min": [
        -0.9999550580978394,
        -0.999566912651062,
        -0.9999018907546997
      ],
      "type": "VEC3"
    },
    {
      "bufferView": 3,
      "componentType": 5126,
      "count": 65533,
      "max": [
        0.7411764860153198,
        0.6313725709915161,
        0.3843137323856354,
        1.0
      ],
      "min": [
        0.0,
        0.0,
        0.0,
        1.0
      ],
      "type": "VEC4"
    },
    {
      "bufferView": 1,
      "componentType": 5126,
      "count": 65533,
      "max": [
        0.9997559785842896,
        0.3034670054912567
      ],
      "min": [
        0.00024399999529123306,
        0.00024399999529123306
      ],
      "type": "VEC2"
    },
    {
      "bufferView": 0,
      "componentType": 5125,
      "count": 259458,
      "type": "SCALAR"
    },
    {
      "bufferView": 2,
      "byteOffset": 1572792,
      "componentType": 5126,
      "count": 65533,
      "max": [
        3.7850656509399414,
        -3.43904972076416,
        7.369106292724609
      ],
      "min": [
        -3.8458433151245117,
        -19.564828872680664,
        -6.297174453735352
      ],
      "type": "VEC3"
    },
    {
      "bufferView": 2,
      "byteOffset": 2359188,
      "componentType": 5126,
      "count": 65533,
      "max": [
        0.9787975549697876,
        0.9995837807655334,
        0.9789201021194458
      ],
      "min": [
        -0.9999797344207764,
        -0.9996562600135803,
        -0.9999938607215881
      ],
      "type": "VEC3"
    },
    {
      "bufferView": 3,
      "byteOffset": 1048528,
      "componentType": 5126,
      "count": 65533,
      "max": [
        0.7843137383460999,
        0.6627451181411743,
        0.38823530077934265,
        1.0
      ],
      "min": [
        0.019607843831181526,
        0.019607843831181526,
        0.01568627543747425,
        1.0
      ],
      "type": "VEC4"
    },
    {
      "bufferView": 1,
      "byteOffset": 524264,
      "componentType": 5126,
      "count": 65533,
      "max": [
        0.9997559785842896,
        0.30444300174713135
      ],
      "min": [
        0.00024399999529123306,
        0.00024399999529123306
      ],
      "type": "VEC2"
    },
    {
      "bufferView": 0,
      "byteOffset": 1037832,
      "componentType": 5125,
      "count": 183981,
      "type": "SCALAR"
    },
    {
      "bufferView": 2,
      "byteOffset": 3145584,
      "componentType": 5126,
      "count": 65533,
      "max": [
        6.153315544128418,
        0.35886573791503906,
        12.010430335998535
      ],
      "min": [
        -6.554018974304199,
        -26.235523223876953,
        -8.105196952819824
      ],
      "type": "VEC3"
    },
    {
      "bufferView": 2,
      "byteOffset": 3931980,
      "componentType": 5126,
      "count": 65533,
      "max": [
        0.9952608942985535,
        0.999602735042572,
        0.9998639225959778
      ],
      "min": [
        -0.9999994039535522,
        -0.9996533393859863,
        -0.9999961853027344
      ],
      "type": "VEC3"
    },
    {
      "bufferView": 3,
      "byteOffset": 2097056,
      "componentType": 5126,
      "count": 65533,
      "max": [
        0.9960784316062927,
        0.9803921580314636,
        0.800000011920929,
        1.0
      ],
      "min": [
        0.003921568859368563,
        0.0,
        0.0,
        1.0
      ],
      "type": "VEC4"
    },
    {
      "bufferView": 1,
      "byteOffset": 1048528,
      "componentType": 5126,
      "count": 65533,
      "max": [
        0.9997559785842896,
        0.5294820070266724
      ],
      "min": [
        0.00024399999529123306,
        0.00024399999529123306
      ],
      "type": "VEC2"
    },
    {
      "bufferView": 0,
      "byteOffset": 1773756,
      "componentType": 5125,
      "count": 240303,
      "type": "SCALAR"
    },
    {
      "bufferView": 2,
      "byteOffset": 4718376,
      "componentType": 5126,
      "count": 65533,
      "max": [
        4.102303504943848,
        -1.042860984802246,
        12.01587200164795
      ],
      "min": [
        -6.673242568969727,
        -28.21135711669922,
        -7.1444830894470215
      ],
      "type": "VEC3"
    },
    {
      "bufferView": 2,
      "byteOffset": 5504772,
      "componentType": 5126,
      "count": 65533,
      "max": [
        0.9711077213287354,
        0.9999135732650757,
        0.9999383091926575
      ],
      "min": [
        -0.9999992847442627,
        -0.9998263716697693,
        -0.999999463558197
      ],
      "type": "VEC3"
    },
    {
      "bufferView": 3,
      "byteOffset": 3145584,
      "componentType": 5126,
      "count": 65533,
      "max": [
        0.9960784316062927,
        0.9960784316062927,
        0.8313725590705872,
        1.0
      ],
      "min": [
        0.0,
        0.0,
        0.0,
        1.0
      ],
      "type": "VEC4"
    },
    {
      "bufferView": 1,
      "byteOffset": 1572792,
      "componentType": 5126,
      "count": 65533,
      "max": [
        0.9997559785842896,
        0.49468499422073364
      ],
      "min": [
        0.00024399999529123306,
        0.00024399999529123306
      ],
      "type": "VEC2"
    },
    {
      "bufferView": 0,
      "byteOffset": 2734968,
      "componentType": 5125,
      "count": 232098,
      "type": "SCALAR"
    },
    {
      "bufferView": 2,
      "byteOffset": 6291168,
      "componentType": 5126,
      "count": 65532,
      "max": [
        3.796938896179199,
        0.789057731628418,
        12.05576229095459
      ],
      "min": [
        -6.776490211486816,
        -28.26747703552246,
        -7.137270450592041
      ],
      "type": "VEC3"
    },
    {
      "bufferView": 2,
      "byteOffset": 7077552,
      "componentType": 5126,
      "count": 65532,
      "max": [
        0.9884530305862427,
        0.9999825358390808,
        0.9999415278434753
      ],
      "min": [
        -0.9999922513961792,
        -0.9999792575836182,
        -0.9999876618385315
      ],
      "type": "VEC3"
    },
    {
      "bufferView": 3,
      "byteOffset": 4194112,
      "componentType": 5126,
      "count": 65532,
      "max": [
        0.9882352948188782,
        0.929411768913269,
        0.7882353067398071,
        1.0
      ],
      "min": [
        0.0,
        0.0,
        0.0,
        1.0
      ],
      "type": "VEC4"
    },
    {
      "bufferView": 1,
      "byteOffset": 2097056,
      "componentType": 5126,
      "count": 65532,
      "max": [
        0.9997559785842896,
        0.5622559785842896
      ],
      "min": [
        0.00024399999529123306,
        0.00024399999529123306
      ],
      "type": "VEC2"
    },
    {
      "bufferView": 0,
      "byteOffset": 3663360,
      "componentType": 5125,
      "count": 222336,
      "type": "SCALAR"
    },
    {
      "bufferView": 2,
      "byteOffset": 7863936,
      "componentType": 5126,
      "count": 65533,
      "max": [
        3.5935544967651367,
        0.7760248184204102,
        12.015730857849121
      ],
      "min": [
        -6.767984390258789,
        -28.237581253051758,
        -6.497250556945801
      ],
      "type": "VEC3"
    },
    {
      "bufferView": 2,
      "byteOffset": 8650332,
      "componentType": 5126,
      "count": 65533,
      "max": [
        0.9580400586128235,
        0.9999494552612305,
        0.9997782707214355
      ],
      "min": [
        -0.9999936819076538,
        -0.9999877214431763,
        -0.9999982118606567
      ],
      "type": "VEC3"
    },
    {
      "bufferView": 3,
      "byteOffset": 5242624,
      "componentType": 5126,
      "count": 65533,
      "max": [
        0.9960784316062927,
        0.9960784316062927,
        0.800000011920929,
        1.0
      ],
      "min": [
        0.0,
        0.0,
        0.0,
        1.0
      ],
      "type": "VEC4"
    },
    {
      "bufferView": 1,
      "byteOffset": 2621312,
      "componentType": 5126,
      "count": 65533,
      "max": [
        0.9997559785842896,
        0.5297830104827881
      ],
      "min": [
        0.00024399999529123306,
        0.00024399999529123306
      ],
      "type": "VEC2"
    },
    {
      "bufferView": 0,
      "byteOffset": 4552704,
      "componentType": 5125,
      "count": 199455,
      "type": "SCALAR"
    },
    {
      "bufferView": 2,
      "byteOffset": 9436728,
      "componentType": 5126,
      "count": 55557,
      "max": [
        6.1490373611450195,
        0.5760087966918945,
        11.998255729675293
      ],
      "min": [
        -6.495610237121582,
        -28.16489601135254,
        -8.118340492248535
      ],
      "type": "VEC3"
    },
    {
      "bufferView": 2,
      "byteOffset": 10103412,
      "componentType": 5126,
      "count": 55557,
      "max": [
        0.999650776386261,
        0.9999825358390808,
        0.9983289241790771
      ],
      "min": [
        -0.99998539686203,
        -0.999980092048645,
        -0.9999878406524658
      ],
      "type": "VEC3"
    },
    {
      "bufferView": 3,
      "byteOffset": 6291152,
      "componentType": 5126,
      "count": 55557,
      "max": [
        0.9960784316062927,
        0.9960784316062927,
        0.8509804010391235,
        1.0
      ],
      "min": [
        0.003921568859368563,
        0.0,
        0.0,
        1.0
      ],
      "type": "VEC4"
    },
    {
      "bufferView": 1,
      "byteOffset": 3145576,
      "componentType": 5126,
      "count": 55557,
      "max": [
        0.9997559785842896,
        0.44213899970054626
      ],
      "min": [
        0.00024399999529123306,
        0.00024399999529123306
      ],
      "type": "VEC2"
    },
    {
      "bufferView": 0,
      "byteOffset": 5350524,
      "componentType": 5125,
      "count": 162369,
      "type": "SCALAR"
    }
  ],
  "asset": {
    "extras": {
      "author": "Geoffrey Marchal (https://sketchfab.com/geoffreymarchal)",
      "license": "CC-BY-NC-SA-4.0 (http://creativecommons.org/licenses/by-nc-sa/4.0/)",
      "source": "https://sketchfab.com/3d-models/mignon-ad9addc865b14c0193f7380329be5a0e",
      "title": "Mignon"
    },
    "generator": "Sketchfab-15.12.0",
    "version": "2.0"
  },
  "bufferViews": [
    {
      "buffer": 0,
      "byteLength": 6000000,
      "name": "floatBufferViews",
      "target": 34963
    },
    {
      "buffer": 0,
      "byteLength": 3590032,
      "byteOffset": 6000000,
      "byteStride": 8,
      "name": "floatBufferViews",
      "target": 34962
    },
    {
      "buffer": 0,
      "byteLength": 10770096,
      "byteOffset": 9590032,
      "byteStride": 12,
      "name": "floatBufferViews",
      "target": 34962
    },
    {
      "buffer": 0,
      "byteLength": 7180064,
      "byteOffset": 20360128,
      "byteStride": 16,
      "name": "floatBufferViews",
      "target": 34962
    }
  ],
  "buffers": [
    {
      "byteLength": 27540192,
      "uri": "scene.bin"
    }
  ],
  "extensionsUsed": [
    "KHR_materials_specular"
  ],
  "images": [
    {
      "uri": "textures/mignon_-_CleanUp_-_LowPoly_Material_u1_v1_baseColor.jpeg"
    },
    {
      "uri": "textures/mignon_-_CleanUp_-_LowPoly_Material_u1_v1_specularf0.png"
    }
  ],
  "materials": [
    {
      "doubleSided": true,
      "extensions": {
        "KHR_materials_specular": {
          "specularColorFactor": [
            1.0,
            1.0,
            1.0
          ],
          "specularFactor": 1.0,
          "specularTexture": {
            "index": 1
          }
        }
      },
      "name": "mignon_-_CleanUp_-_LowPoly_Material_u1_v1",
      "pbrMetallicRoughness": {
        "baseColorTexture": {
          "index": 0
        },
        "metallicFactor": 0.0
      }
    }
  ],
  "meshes": [
    {
      "name": "Object_0",
      "primitives": [
        {
          "attributes": {
            "COLOR_0": 2,
            "NORMAL": 1,
            "POSITION": 0,
            "TEXCOORD_0": 3
          },
          "indices": 4,
          "material": 0,
          "mode": 4
        }
      ]
    },
    {
      "name": "Object_1",
      "primitives": [
        {
          "attributes": {
            "COLOR_0": 7,
            "NORMAL": 6,
            "POSITION": 5,
            "TEXCOORD_0": 8
          },
          "indices": 9,
          "material": 0,
          "mode": 4
        }
      ]
    },
    {
      "name": "Object_2",
      "primitives": [
        {
          "attributes": {
            "COLOR_0": 12,
            "NORMAL": 11,
            "POSITION": 10,
            "TEXCOORD_0": 13
          },
          "indices": 14,
          "material": 0,
          "mode": 4
        }
      ]
    },
    {
      "name": "Object_3",
      "primitives": [
        {
          "attributes": {
            "COLOR_0": 17,
            "NORMAL": 16,
            "POSITION": 15,
            "TEXCOORD_0": 18
          },
          "indices": 19,
          "material": 0,
          "mode": 4
        }
      ]
    },
    {
      "name": "Object_4",
      "primitives": [
        {
          "attributes": {
            "COLOR_0": 22,
            "NORMAL": 21,
            "POSITION": 20,
            "TEXCOORD_0": 23
          },
          "indices": 24,
          "material": 0,
          "mode": 4
        }
      ]
    },
    {
      "name": "Object_5",
      "primitives": [
        {
          "attributes": {
            "COLOR_0": 27,
            "NORMAL": 26,
            "POSITION": 25,
            "TEXCOORD_0": 28
          },
          "indices": 29,
          "material": 0,
          "mode": 4
        }
      ]
    },
    {
      "name": "Object_6",
      "primitives": [
        {
          "attributes": {
            "COLOR_0": 32,
            "NORMAL": 31,
            "POSITION": 30,
            "TEXCOORD_0": 33
          },
          "indices": 34,
          "material": 0,
          "mode": 4
        }
      ]
    }
  ],
  "nodes": [
    {
      "children": [
        1
      ],
      "matrix": [
        -0.5266380310058594,
        0.03712449967861157,
        0.8492786288261414,
        0.0,
        3.3306690738754696e-16,
        -0.9990459680557251,
        0.04367127642035462,
        0.0,
        0.8500896096229553,
        0.022998955100774647,
        0.5261356234550476,
        0.0,
        0.0,
        0.0,
        0.0,
        1.0
      ],
      "name": "Sketchfab_model"
    },
    {
      "children": [
        2,
        3,
        4,
        5,
        6,
        7,
        8
      ],
      "name": "mignon_-_CleanUp_-_LowPoly.obj.cleaner.materialmerger.gles"
    },
    {
      "mesh": 0,
      "name": "Object_2"
    },
    {
      "mesh": 1,
      "name": "Object_3"
    },
    {
      "mesh": 2,
      "name": "Object_4"
    },
    {
      "mesh": 3,
      "name": "Object_5"
    },
    {
      "mesh": 4,
      "name": "Object_6"
    },
    {
      "mesh": 5,
      "name": "Object_7"
    },
    {
      "mesh": 6,
      "name": "Object_8"
    }
  ],
  "samplers": [
    {
      "magFilter": 9729,
      "minFilter": 9987,
      "wrapS": 10497,
      "wrapT": 10497
    },
    {
      "magFilter": 9728,
      "minFilter": 9728,
      "wrapS": 10497,
      "wrapT": 10497
    }
  ],
  "scene": 0,
  "scenes": [
    {
      "name": "Sketchfab_Scene",
      "nodes": [
        0
      ]
    }
  ],
  "textures": [
    {
      "sampler": 0,
      "source": 0
    },
    {
      "sampler": 1,
      "source": 1
    }
  ]
}
